<mxfile host="app.diagrams.net" modified="2023-05-30T15:43:30.901Z" agent="Mozilla/5.0 (Windows NT 10.0; Win64; x64) AppleWebKit/537.36 (KHTML, like Gecko) Chrome/113.0.0.0 Safari/537.36" version="21.3.5" etag="pCD1y63Kvh2udZLyliqd" type="github">
  <diagram name="Page-1" id="FzeCKHKomQ4BKplmNo4J">
    <mxGraphModel>
      <root>
        <mxCell id="0" />
        <mxCell id="1" parent="0" />
      </root>
    </mxGraphModel>
  </diagram>
</mxfile>
